P3
3 2
255
 76  76  76 
150 150 150 
 28  28  28 
226 226 226 
255 255 255 
  0   0   0 
